<svg id="Layer_1" data-name="Layer 1" xmlns="http://www.w3.org/2000/svg" viewBox="0 0 16.05 4.58"><defs><style>.cls-1{fill:#231f20;}</style></defs><title>Text</title><path class="cls-1" d="M14.81.06,12.52,3.34H14V2.52h.32q.11,0,.09-.09V2.25a.94.94,0,0,1,.27-.81L15.55.2c.07-.1.13-.16.25-.14a2.08,2.08,0,0,0,.25,0v3.7h-.4V.84l0,0,0,.07-1.1,1.58a.24.24,0,0,0-.05.1c0,.26,0,.52,0,.79h.82c-.1.14-.18.27-.28.39s-.06,0-.09,0h-.45v.81H14V3.77H11.71L12,3.29,14.24.15a.19.19,0,0,1,.17-.09C14.53.07,14.66.06,14.81.06Z"/><path class="cls-1" d="M6,2A5.77,5.77,0,0,1,6,2.77a1.36,1.36,0,0,1-1.15,1,1.43,1.43,0,0,1-1.46-.72,1.28,1.28,0,0,1-.15-.58c0-.44,0-.87,0-1.31A1.37,1.37,0,0,1,4.47,0,1.39,1.39,0,0,1,6,1a.41.41,0,0,1,0,.16C6,1.43,6,1.67,6,2Zm-.44-.05a6.7,6.7,0,0,0,0-.74A.94.94,0,0,0,4.68.43a1,1,0,0,0-1,.87c0,.25,0,.5,0,.76a2,2,0,0,0,.08.76,1,1,0,0,0,1.85-.26C5.57,2.37,5.58,2.18,5.59,1.93Z"/><path class="cls-1" d="M6.65.07H7.5a4,4,0,0,1,.69,0,1.26,1.26,0,0,1,1,1.17c0,.43,0,.87,0,1.3A1.27,1.27,0,0,1,8,3.75c-.44,0-.88,0-1.32,0h0Zm.4,3.28h.87a.88.88,0,0,0,.91-.85q0-.6,0-1.2A.84.84,0,0,0,8.15.52c-.36-.05-.73,0-1.1-.06Z"/><path class="cls-1" d="M10.28.48V1.71H12.2c-.1.14-.18.27-.27.39s-.06,0-.1,0H10.28V3.34h.78c-.1.15-.18.27-.27.39s-.07,0-.11,0H10c-.11,0-.14,0-.14-.13,0-.82,0-1.64,0-2.45V.08h2.47c.1,0,.13,0,.12.13,0,.28,0,.28-.28.28H10.28Z"/><path class="cls-1" d="M2.66,3.12a1.42,1.42,0,0,1-1,.69A1.4,1.4,0,0,1,.2,3.12a1.3,1.3,0,0,1-.15-.43,6.11,6.11,0,0,1,0-1.54A1.36,1.36,0,0,1,1.56,0,1.4,1.4,0,0,1,2.66.7L2.28.92A1,1,0,0,0,2.2.81a.94.94,0,0,0-1-.35.87.87,0,0,0-.71.76,10.28,10.28,0,0,0,0,1.11,1.15,1.15,0,0,0,.13.6A1,1,0,0,0,2.2,3c.06-.09.11-.1.2,0A2.2,2.2,0,0,0,2.66,3.12Z"/></svg>